
<svg xmlns="http://www.w3.org/2000/svg" xmlns:xlink="http://www.w3.org/1999/xlink" width="800" zoomAndPan="magnify" viewBox="0 0 375 374.999991" height="800" preserveAspectRatio="xMidYMid meet" version="1.0"><defs><g/><clipPath id="7b9e500bee"><path d="M 0.179688 64.730469 L 374.816406 64.730469 L 374.816406 331.722656 L 0.179688 331.722656 Z M 0.179688 64.730469 " clip-rule="nonzero"/></clipPath><clipPath id="ed4a6dabea"><path d="M 356.441406 195.757812 L 374.816406 195.757812 L 374.816406 210 L 356.441406 210 Z M 356.441406 195.757812 " clip-rule="nonzero"/></clipPath></defs><rect x="-37.5" width="450" fill="#ffffff" y="-37.499999" height="449.999989" fill-opacity="1"/><rect x="-37.5" width="450" fill="#2e765e" y="-37.499999" height="449.999989" fill-opacity="1"/><g clip-path="url(#7b9e500bee)"><path fill="#fafffe" d="M 331.574219 172.503906 C 335.476562 170.941406 352.636719 184.996094 356.148438 183.433594 C 359.660156 181.875 342.496094 172.894531 336.253906 171.332031 C 330.015625 169.769531 333.136719 163.914062 338.207031 161.179688 C 343.277344 158.449219 330.015625 150.636719 340.15625 150.636719 C 350.296875 150.636719 371.75 170.941406 374.480469 166.523438 C 377.210938 162.105469 362 154.152344 354.980469 151.027344 C 347.957031 147.902344 339.765625 144.78125 340.9375 136.972656 C 342.105469 129.164062 328.847656 125.257812 322.214844 125.257812 C 315.582031 125.257812 317.535156 112.765625 309.34375 107.296875 C 301.152344 101.832031 288.671875 113.152344 283.992188 113.542969 C 279.3125 113.933594 278.140625 103.785156 274.238281 108.078125 C 270.339844 112.371094 268.390625 118.621094 259.808594 117.058594 C 251.226562 115.496094 255.90625 123.304688 255.90625 129.554688 C 255.90625 135.800781 246.9375 136.191406 247.621094 131.117188 C 248.308594 126.039062 243.816406 126.429688 238.746094 123.695312 C 233.675781 120.964844 239.136719 117.449219 244.984375 113.542969 C 250.835938 109.640625 246.15625 102.222656 238.746094 105.34375 C 231.335938 108.46875 228.605469 112.371094 222.511719 111.203125 C 216.417969 110.03125 211.050781 103.003906 217.683594 98.707031 C 224.3125 94.410156 223.925781 89.335938 217.683594 91.289062 C 211.441406 93.242188 203.253906 97.144531 200.132812 97.535156 C 197.011719 97.925781 192.332031 92.851562 195.839844 90.507812 C 199.351562 88.164062 207.933594 89.335938 207.152344 82.699219 C 206.371094 76.058594 196.621094 76.453125 193.890625 79.574219 C 191.160156 82.699219 197.402344 88.554688 189.601562 87.382812 C 181.800781 86.210938 177.898438 89.335938 173.21875 90.898438 C 168.539062 92.460938 165.417969 87.382812 166.199219 81.917969 C 166.980469 76.453125 172.4375 64.347656 166.199219 64.738281 C 159.957031 65.128906 165.808594 78.40625 164.246094 80.328125 C 162.6875 82.25 157.617188 91.679688 150.207031 91.289062 C 142.796875 90.898438 147.476562 80.746094 143.964844 80.347656 C 140.453125 79.953125 140.066406 85.042969 138.503906 90.898438 C 136.945312 96.753906 131.484375 103.003906 124.464844 100.660156 C 117.445312 98.316406 123.683594 80.746094 119.394531 80.355469 C 115.101562 79.964844 119.003906 96.753906 115.882812 98.707031 C 112.761719 100.660156 112.371094 84.261719 106.539062 84.652344 C 100.703125 85.042969 105.742188 104.5625 106.488281 107.6875 C 107.230469 110.8125 99.890625 112.765625 96.769531 111.589844 C 93.648438 110.421875 93.648438 118.621094 90.140625 119.789062 C 86.628906 120.964844 82.339844 112.371094 79.996094 115.496094 C 77.65625 118.621094 87.019531 127.992188 82.730469 130.335938 C 78.4375 132.675781 71.808594 122.523438 69.859375 115.105469 C 67.90625 107.6875 64.398438 96.753906 60.496094 97.925781 C 56.589844 99.097656 65.957031 118.230469 69.46875 125.648438 C 72.980469 133.066406 76.878906 146.734375 73.367188 149.832031 C 69.859375 152.929688 56.988281 150.246094 50.746094 149.855469 C 44.503906 149.464844 46.066406 153.761719 56.597656 157.664062 C 67.128906 161.570312 73.285156 174.414062 72.535156 183.410156 C 71.785156 192.40625 63.796875 198.90625 53.3125 197.90625 C 42.828125 196.90625 29.84375 181.660156 23.605469 176.664062 C 17.363281 171.664062 11.121094 182.410156 16.613281 189.910156 C 22.105469 197.40625 46.324219 204.402344 60.972656 205.652344 C 75.621094 206.902344 77.777344 220.148438 73.78125 222.148438 C 69.789062 224.144531 70.539062 217.898438 67.042969 217.148438 C 63.546875 216.398438 61.050781 220.898438 56.808594 220.398438 C 52.5625 219.898438 55.308594 214.898438 52.5625 213.902344 C 49.816406 212.902344 50.316406 220.648438 48.070312 221.898438 C 45.824219 223.144531 41.328125 217.398438 37.335938 218.148438 C 33.339844 218.898438 44.824219 223.394531 36.335938 225.144531 C 27.847656 226.894531 17.613281 239.640625 17.613281 247.886719 C 17.613281 255.527344 21.886719 264.875 19.335938 269.390625 C 17.972656 270.1875 15.859375 269.191406 14.367188 270.246094 C 12.867188 271.304688 16.902344 272.820312 16.363281 274.0625 C 15.824219 275.308594 15.859375 275.714844 13.1875 275.421875 C 10.519531 275.128906 9.265625 277.480469 9.886719 279.476562 C 10.511719 281.472656 15.464844 279.285156 15.546875 280.425781 C 15.625 281.566406 14.871094 282.96875 13.25 283.714844 C 11.632812 284.464844 9.328125 283.964844 7.707031 285.214844 C 6.085938 286.460938 8.519531 288.519531 10.511719 286.835938 C 12.503906 285.152344 15.496094 282.59375 16.394531 283.203125 C 16.40625 283.207031 16.414062 283.222656 16.425781 283.230469 C 16.554688 283.457031 16.695312 283.667969 16.855469 283.859375 C 17.105469 284.695312 16.714844 285.867188 15.683594 285.960938 C 14.3125 286.085938 11.941406 286.148438 12.816406 287.523438 C 13.6875 288.894531 17.550781 286.960938 19.046875 285.992188 C 20.484375 285.0625 21.082031 285.917969 21.125 285.980469 C 21.292969 286.230469 21.496094 286.523438 21.75 286.871094 C 21.804688 287.945312 21.277344 289.476562 19.273438 291.589844 C 14.472656 296.667969 -6.589844 323.21875 2.378906 325.949219 C 11.351562 328.683594 18.601562 289.386719 27.261719 293.613281 C 27.261719 293.613281 27.265625 293.613281 27.265625 293.613281 C 27.902344 294.351562 28.597656 295.136719 29.359375 295.996094 C 31.832031 303.269531 18.808594 321.214844 24.613281 323.605469 C 31.246094 326.339844 34.371094 302.617188 40.703125 305.421875 C 47.035156 308.226562 38.265625 316.578125 43.726562 316.1875 C 49.183594 315.800781 45.5625 308.355469 50.628906 309.269531 C 55.695312 310.191406 53.867188 320.484375 58.15625 320.484375 C 62.445312 320.484375 59.539062 311.171875 62.570312 310.734375 C 65.605469 310.296875 64.789062 316.578125 68.296875 314.625 C 71.011719 313.117188 70.3125 310.59375 71.828125 308.984375 C 72.148438 308.855469 72.386719 308.730469 72.535156 308.613281 C 74.78125 306.867188 80.523438 306.117188 85.765625 306.117188 C 91.007812 306.117188 98.996094 296.621094 99.496094 292.121094 C 99.992188 287.621094 107.78125 284.011719 106.488281 286.371094 C 105.277344 288.574219 104.960938 291.589844 109.25 291.980469 C 113.542969 292.371094 114.320312 290.027344 117.050781 299.007812 C 119.78125 307.988281 120.953125 309.941406 117.832031 317.359375 C 114.710938 324.78125 117.050781 335.710938 127.195312 330.246094 C 137.335938 324.78125 125.242188 312.675781 124.074219 306.820312 C 122.902344 300.960938 117.832031 285.734375 124.464844 283.390625 C 131.09375 281.050781 136.164062 298.226562 144.746094 299.789062 C 153.328125 301.351562 155.277344 284.171875 162.6875 285.34375 C 170.097656 286.515625 171.269531 302.132812 177.117188 299.789062 C 182.96875 297.449219 181.800781 284.953125 189.601562 284.953125 C 197.402344 284.953125 190.378906 297.449219 196.230469 295.492188 C 202.082031 293.542969 197.011719 287.296875 200.910156 281.828125 C 204.8125 276.363281 211.832031 285.734375 219.632812 283.390625 C 227.433594 281.050781 225.875 274.019531 225.875 266.992188 C 225.875 259.964844 234.457031 263.867188 239.136719 261.527344 C 243.816406 259.183594 236.40625 255.667969 243.035156 247.859375 C 249.667969 240.050781 254.347656 254.496094 257.464844 250.59375 C 260.589844 246.691406 250.445312 245.515625 247.714844 239.269531 C 244.984375 233.023438 262.539062 235.363281 255.515625 230.289062 C 248.496094 225.214844 255.125 212.71875 267.21875 213.109375 C 279.3125 213.5 291.402344 209.597656 278.140625 209.203125 C 264.878906 208.816406 253.957031 202.179688 256.296875 195.929688 C 258.636719 189.683594 284.378906 199.445312 277.75 193.585938 C 271.117188 187.730469 255.125 189.292969 255.515625 183.433594 C 255.90625 177.578125 268 174.066406 273.847656 176.40625 C 279.699219 178.75 286.332031 175.625 291.011719 174.453125 C 295.691406 173.285156 293.351562 184.214844 299.203125 187.628906 C 305.054688 191.039062 307.785156 184.214844 310.125 179.53125 C 312.464844 174.847656 319.484375 177.96875 319.875 187.628906 C 320.265625 197.285156 326.117188 201.003906 331.183594 199.832031 C 336.253906 198.664062 317.925781 170.941406 326.503906 176.40625 C 335.085938 181.875 361.21875 198.664062 355.757812 192.414062 C 350.296875 186.167969 327.675781 174.066406 331.574219 172.503906 " fill-opacity="1" fill-rule="nonzero"/></g><path fill="#fafffe" d="M 256.296875 266.992188 C 253.738281 264.890625 244.207031 257.621094 243.035156 263.089844 C 241.867188 268.554688 251.617188 280.65625 256.296875 277.144531 C 260.976562 273.628906 259.074219 269.273438 256.296875 266.992188 " fill-opacity="1" fill-rule="nonzero"/><path fill="#fafffe" d="M 283.210938 220.527344 C 274.738281 221.898438 269.167969 231.851562 278.140625 233.414062 C 287.109375 234.976562 295.304688 218.578125 283.210938 220.527344 " fill-opacity="1" fill-rule="nonzero"/><g clip-path="url(#ed4a6dabea)"><path fill="#fafffe" d="M 365.117188 195.929688 C 360.4375 194.757812 352.636719 200.613281 359.269531 205.691406 C 365.902344 210.765625 375.128906 211.15625 374.804688 205.691406 C 374.480469 200.226562 365.117188 195.929688 365.117188 195.929688 " fill-opacity="1" fill-rule="nonzero"/></g><path fill="#fafffe" d="M 10.4375 269.34375 C 10.4375 269.34375 15.417969 264.699219 13.1875 260.230469 C 10.953125 255.761719 4.085938 262.808594 5.457031 267.277344 C 6.832031 271.746094 9.167969 270.796875 10.4375 269.34375 " fill-opacity="1" fill-rule="nonzero"/><g fill="#ff5757" fill-opacity="1"><g transform="translate(126.125604, 227.154735)"><g><path d="M -6.8125 -13.65625 C -7.070312 -13.273438 -3.597656 -11.363281 -3.246094 -11.027344 C -3.265625 -8.355469 -3.636719 -6.523438 -3.449219 -4.96875 C -3.742188 -3.367188 -3.800781 -2.449219 -3.546875 -2.066406 C -3.074219 -0.96875 -0.539062 0.582031 0.0976562 0.332031 C 0.40625 0.0546875 0.640625 -0.503906 0.90625 -1.648438 C 1.21875 -2.6875 1.484375 -4.085938 1.886719 -6.503906 C 2.308594 -8.105469 2.6875 -10.824219 3.300781 -14.105469 C 4.65625 -14.960938 5.808594 -15.585938 7.035156 -16.316406 C 8.1875 -17.070312 9.164062 -17.929688 10.238281 -18.582031 C 11.414062 -19.285156 12.335938 -19.863281 13.234375 -20.617188 C 13.542969 -17.917969 13.777344 -15.625 14.070312 -14.117188 C 14.621094 -12.609375 14.789062 -11.488281 15.070312 -11.4375 C 15.648438 -10.515625 18.636719 -8.9375 19.96875 -9.585938 C 20.046875 -9.6875 20.203125 -10.273438 20.160156 -11.394531 C 19.941406 -12.492188 19.75 -14.046875 19.664062 -15.777344 C 19.675781 -17.558594 19.132812 -19.578125 18.847656 -21.71875 C 18.253906 -24.089844 18.171875 -26.460938 17.425781 -28.632812 C 16.9375 -31.183594 16.90625 -33.320312 16.695312 -35.691406 C 15.921875 -37.660156 15.558594 -39.953125 15.316406 -41.484375 C 14.976562 -43.472656 14.785156 -44.773438 14.492188 -46.148438 C 14.292969 -47.070312 14.199219 -47.65625 14.171875 -47.707031 C 13.972656 -48.242188 13.601562 -49.265625 10.289062 -49.035156 C 8.402344 -48.875 7.710938 -48.601562 7.355469 -48.425781 C 6.253906 -47.949219 5.429688 -46.785156 5.113281 -45.617188 C 4.957031 -45.03125 4.695312 -44.269531 4.40625 -43.179688 C 4.144531 -42.160156 3.855469 -40.941406 3.433594 -39.59375 C 3.269531 -38.246094 2.882812 -37.230469 2.359375 -35.707031 C 2.164062 -33.902344 1.847656 -32.351562 1.453125 -30.953125 C 1.109375 -29.199219 0.433594 -27.726562 0.113281 -25.921875 C -0.0546875 -24.191406 -0.527344 -22.4375 -0.742188 -21.191406 C -1.136719 -19.414062 -1.40625 -17.632812 -1.546875 -16.105469 C -3.082031 -15.355469 -3.515625 -15.207031 -4.207031 -14.933594 C -5.074219 -14.378906 -6.507812 -13.804688 -6.8125 -13.65625 Z M -0.351562 -9.652344 L -0.453125 -9.984375 L 0.00390625 -9.828125 Z M -1 -11.621094 L -0.695312 -11.132812 L -0.160156 -11.207031 L -0.140625 -10.773438 L -1.003906 -10.984375 Z M 0.0429688 -11.433594 L 0.0703125 -11.765625 L 0.429688 -11.8125 L 0.269531 -11.226562 Z M -0.453125 -13.09375 C -0.554688 -12.789062 -0.480469 -12.632812 -0.660156 -12.355469 C -0.761719 -12.5625 -0.863281 -12.765625 -0.910156 -12.996094 Z M -0.269531 -13.753906 L -0.597656 -14.035156 C -0.417969 -14.058594 0.195312 -14.105469 0.320312 -13.976562 C 0.445312 -13.847656 0.496094 -13.746094 0.621094 -13.617188 L 0.289062 -13.136719 L -0.371094 -13.449219 Z M 0.96875 -15.371094 L 1.351562 -15.371094 L 1.828125 -14.90625 C 1.574219 -14.78125 1.292969 -14.707031 1.113281 -14.429688 C 1.039062 -14.710938 0.941406 -15.042969 0.96875 -15.371094 Z M 0.0820312 -16.015625 C 0.105469 -15.582031 0.125 -15.277344 -0.132812 -14.898438 L -0.691406 -14.75 L -0.890625 -15.542969 Z M 1.109375 -17.28125 L 1.515625 -17.101562 C 1.414062 -16.796875 1.460938 -16.3125 1.40625 -16.160156 L 1.148438 -15.652344 L 0.664062 -15.730469 L 0.542969 -16.242188 L 0.105469 -15.964844 L -0.015625 -16.347656 L 0.46875 -16.523438 C 0.519531 -16.546875 0.648438 -16.546875 0.699219 -16.570312 C 0.953125 -16.699219 1.03125 -17.054688 1.109375 -17.28125 Z M 1.796875 -17.175781 L 2.027344 -17.222656 L 2.074219 -16.867188 L 1.71875 -16.945312 Z M -0.0585938 -17.34375 L 0.246094 -17.492188 L 0.292969 -16.882812 L -0.0625 -16.960938 Z M 1.171875 -18.578125 C 1.171875 -18.324219 1.195312 -18.019531 1.117188 -17.789062 L 0.832031 -17.589844 L 0.605469 -17.667969 L 0.734375 -18.046875 L 0.511719 -18.507812 Z M 1.582031 -18.652344 L 1.859375 -18.601562 L 2.035156 -18.242188 L 1.703125 -18.140625 Z M -0.171875 -19 L -0.144531 -19.328125 L 0.0859375 -19.503906 L 0.160156 -19.097656 L 0.00390625 -18.769531 Z M 0.835938 -20.949219 C 0.988281 -21.027344 1.066406 -21.128906 1.21875 -21.203125 C 1.375 -21.277344 1.550781 -21.300781 1.707031 -21.375 L 2.0625 -21.296875 L 1.675781 -20.664062 L 1.671875 -20.28125 L 0.859375 -20.519531 Z M 0.640625 -21.871094 L 0.414062 -22.203125 L 0.921875 -22.070312 Z M 2.226562 -23.027344 L 2.757812 -22.589844 L 2.832031 -22.308594 L 2.453125 -22.441406 L 1.992188 -22.34375 Z M 16.617188 -17.203125 L 16.546875 -17.738281 L 16.75 -17.839844 C 16.828125 -17.6875 16.875 -17.582031 16.902344 -17.40625 C 16.925781 -17.226562 16.847656 -17.125 16.949219 -16.921875 Z M 15.925781 -19.78125 L 16.183594 -19.90625 L 16.308594 -19.652344 Z M 15.964844 -21.257812 L 15.816406 -21.691406 L 16.171875 -21.742188 L 16.375 -21.457031 L 16.320312 -21.179688 Z M 17.484375 -20.355469 L 17.207031 -20.664062 L 17.261719 -21.070312 L 17.691406 -20.835938 L 17.894531 -20.425781 Z M 14.636719 -23.96875 L 14.335938 -24.199219 C 14.640625 -24.351562 14.792969 -24.425781 15.125 -24.398438 L 14.96875 -23.941406 Z M 15.683594 -24.289062 L 15.433594 -24.546875 L 15.789062 -24.722656 L 16.015625 -24.261719 Z M 13.335938 -26.753906 L 14.125 -26.824219 L 14.046875 -26.46875 L 13.664062 -26.34375 Z M 14.429688 -26.59375 L 14.101562 -26.875 C 14.355469 -26.875 14.585938 -26.796875 14.761719 -26.566406 Z M 13.78125 -28.304688 L 14.066406 -28.632812 L 14.390625 -28.097656 C 14.339844 -27.816406 14.207031 -27.308594 14 -27.082031 C 13.851562 -27.386719 13.777344 -27.921875 13.78125 -28.304688 Z M 9.710938 -41.019531 C 9.859375 -40.203125 10.226562 -38.800781 10.339844 -37.144531 C 10.785156 -35.460938 11.101562 -33.777344 11.492188 -31.558594 C 11.808594 -29.621094 11.964844 -27.226562 12.460938 -25.566406 C 12.125 -24.957031 11 -24.40625 9.566406 -23.449219 C 8.105469 -22.417969 6.289062 -21.339844 4.011719 -20.035156 C 4.679688 -20.867188 4.816406 -22.011719 5.183594 -23.335938 C 5.472656 -24.425781 5.714844 -25.75 6.109375 -27.144531 C 6.398438 -28.492188 6.917969 -29.761719 7.085938 -31.492188 C 7.757812 -32.710938 7.796875 -34.3125 8.472656 -36.167969 C 9.070312 -37.535156 9.183594 -38.988281 9.710938 -41.019531 Z M 13.175781 -29.023438 L 13.382812 -29.121094 L 13.558594 -28.765625 L 13.199219 -28.71875 Z M 15.519531 -28.773438 L 15.847656 -28.746094 L 15.769531 -28.390625 L 15.078125 -27.859375 L 14.878906 -28.269531 C 15.082031 -28.371094 15.363281 -28.570312 15.519531 -28.773438 Z M 15.179688 -31.144531 L 15.484375 -30.660156 C 15.148438 -30.304688 14.710938 -29.902344 14.253906 -29.675781 L 14.867188 -30.359375 L 14.71875 -30.792969 Z M 15.042969 -29.875 L 16.121094 -30.78125 C 15.964844 -30.324219 15.578125 -30.074219 15.472656 -29.640625 L 15.089844 -29.390625 Z M 13.984375 -31.257812 L 14.34375 -31.304688 L 14.136719 -30.949219 Z M 13.25 -31.847656 L 13.65625 -31.667969 L 13.402344 -31.542969 Z M 12.566406 -32.210938 L 12.597656 -33.050781 L 12.90625 -33.328125 C 13.234375 -33.046875 13.460938 -32.585938 13.710938 -32.203125 L 13.203125 -31.949219 Z M 14.097656 -32.707031 L 14.839844 -32.753906 L 15.261719 -31.882812 L 15.773438 -31.878906 L 15.792969 -31.320312 L 15.230469 -31.171875 L 14.953125 -31.476562 C 14.496094 -31.507812 14.136719 -31.203125 14.066406 -31.867188 C 14.042969 -32.171875 14.097656 -32.453125 14.097656 -32.707031 Z M 12.042969 -33.667969 L 12.476562 -33.5625 L 12.21875 -33.308594 Z M 14.613281 -33.339844 L 14.710938 -33.007812 C 14.664062 -33.109375 14.5625 -33.1875 14.613281 -33.339844 Z M 14.277344 -35.839844 L 14.609375 -35.9375 L 14.863281 -35.808594 L 14.910156 -35.449219 L 14.65625 -35.199219 C 14.503906 -35.378906 14.378906 -35.632812 14.277344 -35.839844 Z M 11.957031 -38.507812 L 12.3125 -38.300781 L 12.824219 -38.421875 L 12.878906 -39.085938 L 13.234375 -39.132812 C 12.882812 -39.59375 12.808594 -39.875 12.222656 -40.03125 L 12.023438 -40.441406 L 12.175781 -40.386719 L 12.078125 -40.847656 L 12.589844 -41.226562 L 13.042969 -40.304688 L 13.449219 -40.125 L 13.492188 -39.382812 C 13.132812 -38.828125 13.199219 -37.65625 12.660156 -37.328125 L 13.421875 -36.8125 C 13.167969 -36.941406 12.683594 -36.894531 12.402344 -36.820312 L 12.367188 -35.980469 L 13.480469 -34.878906 L 13.5625 -35.359375 L 12.777344 -36.183594 L 13.84375 -35.6875 C 13.964844 -34.925781 14.398438 -34.820312 15.082031 -34.710938 L 14.953125 -34.457031 L 14.191406 -34.71875 L 14.011719 -34.441406 L 14.210938 -34.03125 L 14.695312 -34.078125 C 14.769531 -33.667969 14.539062 -33.367188 14.203125 -33.140625 L 13.875 -33.167969 L 13.820312 -32.886719 L 13.488281 -32.660156 C 13.160156 -33.328125 13.09375 -34.117188 12.25 -34.023438 L 12.152344 -34.480469 L 11.261719 -34.488281 L 10.933594 -34.898438 L 12.082031 -35.015625 L 11.449219 -35.785156 L 11.757812 -36.0625 C 11.710938 -36.421875 11.40625 -36.777344 11.359375 -37.136719 L 11.617188 -37.386719 L 11.917969 -37.03125 L 12.402344 -37.078125 C 12.480469 -37.304688 12.410156 -37.710938 12.285156 -37.96875 C 11.851562 -37.945312 11.417969 -37.796875 11.058594 -37.621094 L 10.851562 -37.265625 C 10.496094 -37.472656 10.296875 -38.011719 10.171875 -38.394531 L 10.226562 -38.546875 L 10.835938 -38.210938 L 11.292969 -38.433594 C 11.496094 -38.40625 11.753906 -38.40625 11.957031 -38.507812 Z M 13.246094 -34.0625 C 13.5 -33.933594 13.699219 -33.527344 13.824219 -33.269531 L 14.234375 -33.726562 C 14.132812 -33.929688 13.933594 -34.210938 13.703125 -34.289062 L 13.53125 -34.773438 C 13.324219 -34.675781 13.144531 -34.269531 13.246094 -34.0625 Z M 13.324219 -37.527344 L 14.089844 -37.519531 L 13.78125 -37.371094 Z M 11.09375 -38.71875 L 11.296875 -38.945312 L 11.371094 -38.664062 Z M 13.355469 -38.367188 L 13.457031 -38.417969 L 13.558594 -38.210938 L 13.457031 -38.164062 Z M 11.957031 -38.507812 C 11.933594 -38.558594 11.855469 -38.582031 11.832031 -38.632812 C 11.753906 -38.789062 11.707031 -39.015625 11.757812 -39.167969 L 12.167969 -39.242188 L 12.496094 -39.085938 C 12.34375 -38.886719 12.136719 -38.65625 11.957031 -38.507812 Z M 10.824219 -40.296875 L 11.15625 -40.398438 L 11.433594 -39.707031 L 11.277344 -39.378906 L 10.746094 -39.941406 Z M 13.375 -40.660156 L 14.214844 -40.5 L 14.007812 -40.144531 Z M 13.179688 -41.578125 L 13.460938 -41.523438 L 13.253906 -41.421875 Z M 12.652344 -42.269531 L 12.375 -42.703125 L 12.730469 -42.878906 L 12.960938 -42.800781 L 13.03125 -42.136719 Z M 13.441406 -42.464844 L 13.722656 -42.667969 L 13.847656 -42.285156 L 13.589844 -42.03125 Z M 11.644531 -43.804688 L 11.898438 -43.929688 L 11.949219 -43.574219 L 11.792969 -43.371094 Z M 13.21875 -43.308594 L 12.992188 -43.769531 L 13.125 -44.148438 L 13.246094 -43.640625 L 13.675781 -43.277344 Z M 13.21875 -43.308594 "/></g></g></g><g fill="#ff5757" fill-opacity="1"><g transform="translate(157.109993, 211.982617)"><g><path d="M -11.679688 -37.964844 C -11.738281 -37.175781 -9.351562 -36.058594 -7.339844 -36.222656 C -7.398438 -35.304688 -7.078125 -34.132812 -6.582031 -32.472656 C -6.464844 -30.941406 -6.253906 -28.828125 -5.554688 -27.015625 C -5.320312 -24.847656 -4.800781 -22.882812 -4.589844 -20.640625 C -4.070312 -18.675781 -3.785156 -16.53125 -3.210938 -14.976562 C -2.796875 -12.832031 -2.609375 -10.769531 -2.289062 -9.59375 C -1.976562 -7.527344 -1.78125 -6.226562 -1.5625 -5.257812 C -1.261719 -4.261719 -1.140625 -3.625 -1.015625 -3.371094 C -0.714844 -2.628906 2.605469 -1.023438 3.984375 -1.570312 C 4.214844 -1.621094 4.171875 -2.359375 4.105469 -3.660156 C 3.910156 -4.832031 3.566406 -6.4375 3.277344 -8.453125 C 3.09375 -10.644531 2.472656 -12.8125 2.597656 -15.410156 C 3.152344 -14.667969 4.0625 -14.097656 5.382812 -13.351562 C 6.496094 -12.753906 8.421875 -11.542969 10.148438 -10.867188 C 11.46875 -10.117188 12.988281 -9.339844 14.511719 -8.816406 C 16.011719 -8.347656 16.976562 -8.058594 17.539062 -8.335938 C 19.023438 -9.316406 21.515625 -12.121094 20.960938 -12.480469 C 20.015625 -12.464844 19.304688 -12.496094 18.238281 -12.988281 C 16.890625 -13.152344 15.394531 -13.878906 13.84375 -14.453125 C 12.199219 -15.355469 10.75 -15.851562 9.027344 -17.039062 C 7.328125 -17.664062 6.011719 -18.414062 4.871094 -19.058594 C 5.765625 -19.816406 6.617188 -20.800781 7.285156 -21.761719 C 8.109375 -22.671875 8.675781 -23.457031 9.550781 -24.519531 C 10.375 -25.8125 11.125 -27.128906 11.746094 -28.449219 C 12.421875 -29.921875 13.097656 -31.644531 13.335938 -32.839844 C 13.703125 -34.289062 13.894531 -35.714844 13.625 -37.039062 C 13.714844 -38.414062 13.320312 -40.125 12.492188 -41.429688 C 11.816406 -42.8125 10.730469 -44.117188 9.363281 -45.097656 C 8.042969 -45.71875 6.164062 -46.320312 4.558594 -46.105469 C 3.132812 -45.914062 1.140625 -45.320312 -0.519531 -44.949219 C -2.078125 -43.996094 -3.566406 -43.015625 -4.820312 -42.082031 C -6.457031 -41.15625 -8.25 -40.152344 -9.375 -39.601562 C -10.476562 -38.617188 -11.371094 -38.113281 -11.679688 -37.964844 Z M 0.640625 -6.84375 L 0.492188 -7.152344 L 0.976562 -7.070312 Z M -0.359375 -8.636719 L 0.0429688 -8.199219 L 0.527344 -8.375 L 0.652344 -7.992188 L -0.238281 -8 Z M 0.707031 -8.652344 L 0.660156 -9.007812 L 0.992188 -9.109375 L 0.960938 -8.523438 Z M -0.171875 -10.1875 L -0.175781 -9.421875 C -0.378906 -9.578125 -0.480469 -9.78125 -0.578125 -9.988281 Z M -0.113281 -10.847656 L -0.492188 -11.105469 C -0.339844 -11.183594 0.273438 -11.355469 0.398438 -11.226562 C 0.523438 -11.097656 0.675781 -11.046875 0.804688 -10.917969 L 0.570312 -10.359375 L -0.140625 -10.519531 Z M 0.742188 -12.726562 C 0.742188 -12.726562 1.046875 -12.75 1.046875 -12.75 C 1.199219 -12.695312 1.53125 -12.542969 1.707031 -12.4375 C 1.503906 -12.339844 1.144531 -12.035156 1.066406 -11.808594 C 0.941406 -12.0625 0.738281 -12.472656 0.742188 -12.726562 Z M 0.453125 -14.613281 L 0.882812 -14.507812 C 0.855469 -14.175781 0.957031 -13.84375 1.03125 -13.5625 L 0.847656 -13.03125 L 0.363281 -12.984375 L 0.136719 -13.445312 L -0.195312 -13.089844 C -0.121094 -12.808594 -0.101562 -12.25 -0.230469 -11.996094 L -0.742188 -11.746094 L -1.09375 -12.460938 C -0.863281 -12.765625 -0.503906 -12.941406 -0.222656 -13.140625 L -0.421875 -13.421875 C 0.0117188 -13.699219 0.191406 -13.722656 0.242188 -13.875 C 0.371094 -14.003906 0.371094 -14.128906 0.453125 -14.613281 Z M -0.667969 -14.445312 L -0.4375 -14.621094 L -0.214844 -14.03125 L -0.597656 -14.035156 Z M 1.191406 -14.65625 L 1.394531 -14.757812 L 1.496094 -14.425781 L 1.136719 -14.378906 Z M 0.257812 -15.914062 C 0.332031 -15.632812 0.40625 -15.351562 0.40625 -15.097656 L 0.148438 -14.84375 L -0.105469 -14.847656 L -0.0507812 -15.253906 L -0.378906 -15.664062 Z M 0.640625 -16.039062 L 0.949219 -16.0625 L 1.175781 -15.726562 L 0.867188 -15.578125 Z M -1.113281 -16 L -1.214844 -16.332031 L -1.007812 -16.5625 L -0.832031 -16.203125 L -0.914062 -15.847656 Z M -0.191406 -16.707031 L 0.0390625 -16.882812 L 0.164062 -16.628906 Z M -0.5625 -18.109375 C -0.433594 -18.363281 -0.0507812 -18.617188 0.207031 -18.742188 L 0.539062 -18.710938 C 0.40625 -18.332031 0.175781 -18.027344 0.375 -17.617188 L -0.488281 -17.703125 Z M -0.988281 -18.980469 L -1.265625 -19.289062 L -0.730469 -19.230469 Z M 0.324219 -20.445312 L 0.980469 -20.136719 L 1.105469 -19.878906 L 0.699219 -19.933594 L 0.292969 -19.734375 Z M 1.609375 -40.730469 C 2.710938 -41.332031 4.113281 -41.320312 5 -41.058594 C 6.222656 -40.769531 7.160156 -40.277344 7.660156 -39.128906 C 8.4375 -37.667969 8.421875 -35.886719 8.179688 -34.4375 C 8.164062 -32.527344 7.234375 -31.058594 6.28125 -29.511719 C 5.527344 -27.8125 4.546875 -26.320312 3.46875 -25.027344 C 2.867188 -23.53125 1.941406 -22.445312 1.429688 -21.8125 C 1.164062 -23.519531 0.671875 -25.6875 0.40625 -27.523438 C 0.0390625 -29.4375 -0.0742188 -31.09375 -0.589844 -33.058594 C -0.53125 -34.355469 -1.179688 -35.6875 -1.117188 -36.984375 C -1.339844 -37.828125 -1.589844 -38.464844 -1.636719 -38.824219 C -1.585938 -38.976562 0.359375 -40.179688 1.714844 -40.78125 Z M 10.921875 -30.390625 L 10.773438 -30.699219 L 11.253906 -30.617188 Z M 9.917969 -32.183594 L 10.320312 -31.746094 L 10.808594 -31.921875 L 10.929688 -31.535156 L 10.039062 -31.542969 Z M 10.988281 -32.199219 L 10.941406 -32.554688 L 11.273438 -32.65625 L 11.242188 -32.070312 Z M 10.109375 -33.734375 L 10.101562 -32.96875 C 9.902344 -33.125 9.800781 -33.328125 9.699219 -33.535156 Z M 10.164062 -34.394531 L 9.785156 -34.652344 C 9.941406 -34.726562 10.550781 -34.902344 10.679688 -34.773438 C 10.804688 -34.644531 10.957031 -34.59375 11.082031 -34.464844 L 10.847656 -33.90625 L 10.136719 -34.066406 Z M 11.023438 -36.273438 C 11.023438 -36.273438 11.328125 -36.296875 11.328125 -36.296875 C 11.480469 -36.242188 11.808594 -36.089844 11.988281 -35.984375 C 11.78125 -35.882812 11.421875 -35.582031 11.34375 -35.351562 C 11.21875 -35.609375 11.019531 -36.019531 11.023438 -36.273438 Z M 10.730469 -38.160156 L 11.164062 -38.054688 C 11.136719 -37.722656 11.234375 -37.390625 11.308594 -37.109375 L 11.125 -36.578125 L 10.640625 -36.53125 L 10.417969 -36.992188 L 10.082031 -36.636719 C 10.15625 -36.355469 10.175781 -35.796875 10.046875 -35.542969 L 9.535156 -35.292969 L 9.1875 -36.007812 C 9.417969 -36.3125 9.777344 -36.488281 10.058594 -36.6875 L 9.855469 -36.96875 C 10.292969 -37.246094 10.46875 -37.269531 10.523438 -37.421875 C 10.652344 -37.550781 10.652344 -37.675781 10.730469 -38.160156 Z M 9.609375 -37.992188 L 9.839844 -38.167969 L 10.066406 -37.578125 L 9.683594 -37.582031 Z M 11.472656 -38.203125 L 11.675781 -38.304688 L 11.773438 -37.972656 L 11.417969 -37.925781 Z M 10.539062 -39.460938 C 10.613281 -39.179688 10.6875 -38.898438 10.683594 -38.644531 L 10.429688 -38.390625 L 10.171875 -38.394531 L 10.226562 -38.800781 L 9.898438 -39.210938 Z M 9.164062 -39.546875 L 9.066406 -39.878906 L 9.269531 -40.105469 L 9.445312 -39.75 L 9.367188 -39.394531 Z M 10.921875 -39.585938 L 11.226562 -39.605469 L 11.453125 -39.273438 L 11.148438 -39.125 Z M 10.085938 -40.253906 L 10.316406 -40.429688 L 10.441406 -40.175781 Z M 9.71875 -41.65625 C 9.847656 -41.910156 10.230469 -42.160156 10.484375 -42.285156 L 10.816406 -42.257812 C 10.6875 -41.878906 10.453125 -41.574219 10.65625 -41.164062 L 9.789062 -41.25 Z M 9.71875 -41.65625 "/></g></g></g><g fill="#ff5757" fill-opacity="1"><g transform="translate(184.719871, 198.462896)"><g><path d="M -11.988281 -34.453125 C -10.46875 -33.421875 -9.195312 -33.410156 -7.074219 -34.257812 C -5.921875 -35.011719 -3.03125 -36.875 -2.800781 -36.796875 C -2.78125 -35.980469 -2.617188 -34.601562 -2.195312 -33.226562 C -1.980469 -31.617188 -1.636719 -30.011719 -1.371094 -28.046875 C -0.929688 -26.238281 -0.613281 -24.171875 -0.09375 -22.589844 C 0.269531 -20.421875 0.507812 -18.253906 0.851562 -16.773438 C 1.164062 -14.328125 1.429688 -12.617188 1.722656 -11.113281 C 2.140625 -9.609375 2.386719 -8.207031 2.65625 -7.261719 C 2.878906 -6.292969 3 -5.652344 3.101562 -5.449219 C 3.605469 -4.808594 6.925781 -2.820312 8.308594 -3.75 C 8.28125 -3.675781 8.3125 -4.261719 8.242188 -5.304688 C 8.175781 -6.476562 7.859375 -7.90625 7.976562 -9.738281 C 8.011719 -11.085938 7.441406 -13.15625 7.105469 -15.269531 C 6.511719 -17.515625 6.476562 -19.402344 6.367188 -21.820312 C 5.574219 -24.222656 5.160156 -26.363281 5.046875 -28.402344 C 4.964844 -30.515625 4.367188 -32.382812 4.078125 -34.011719 C 3.558594 -35.851562 3.542969 -37.175781 3.167969 -38.070312 C 3.152344 -39.140625 3.054688 -39.726562 3.03125 -39.777344 C 2.394531 -39.910156 5.699219 -42.226562 8.355469 -43.273438 L 12.066406 -45.40625 C 12.191406 -45.023438 8.277344 -49.128906 6.589844 -48.429688 C 6.410156 -48.152344 5.667969 -47.726562 4.492188 -47.148438 C 3.519531 -46.546875 2.238281 -45.667969 0.5 -44.816406 C -1.089844 -43.65625 -2.75 -42.777344 -4.183594 -41.949219 C -6.050781 -40.972656 -7.589844 -39.96875 -8.867188 -39.339844 C -10.324219 -38.691406 -11.65625 -37.785156 -12.445312 -37.460938 C -13.367188 -37.011719 -14.261719 -36.761719 -14.644531 -36.511719 C -14.648438 -36.128906 -13 -35.097656 -11.9375 -34.351562 Z M 5.132812 -8.03125 L 5.0625 -8.566406 L 5.265625 -8.664062 C 5.34375 -8.511719 5.390625 -8.410156 5.414062 -8.230469 C 5.441406 -8.054688 5.363281 -7.953125 5.464844 -7.746094 Z M 4.441406 -10.609375 L 4.699219 -10.734375 L 4.824219 -10.476562 Z M 6 -11.179688 L 5.722656 -11.488281 L 5.777344 -11.894531 L 6.207031 -11.664062 L 6.410156 -11.253906 Z M 4.480469 -12.085938 L 4.332031 -12.519531 L 4.6875 -12.566406 L 4.890625 -12.285156 L 4.835938 -12.003906 Z M 3.152344 -14.792969 L 2.847656 -15.027344 C 3.15625 -15.175781 3.308594 -15.25 3.640625 -15.222656 L 3.484375 -14.765625 Z M 4.199219 -15.117188 L 3.949219 -15.375 L 4.304688 -15.550781 L 4.53125 -15.089844 Z M 1.851562 -17.582031 L 2.640625 -17.652344 L 2.5625 -17.296875 L 2.179688 -17.171875 Z M 2.296875 -19.128906 L 2.582031 -19.460938 L 2.90625 -18.921875 C 2.855469 -18.640625 2.722656 -18.132812 2.515625 -17.90625 C 2.367188 -18.214844 2.292969 -18.75 2.296875 -19.128906 Z M 4.035156 -19.601562 L 4.363281 -19.570312 L 4.285156 -19.214844 L 3.59375 -18.6875 L 3.390625 -19.097656 C 3.597656 -19.195312 3.878906 -19.398438 4.035156 -19.601562 Z M 1.691406 -19.847656 L 1.898438 -19.949219 L 2.074219 -19.589844 L 1.714844 -19.542969 Z M 3.558594 -20.699219 L 4.636719 -21.605469 C 4.480469 -21.148438 4.09375 -20.898438 3.988281 -20.464844 L 3.605469 -20.214844 Z M 3.695312 -21.972656 L 4 -21.484375 C 3.664062 -21.132812 3.226562 -20.726562 2.769531 -20.503906 L 3.382812 -21.183594 L 3.234375 -21.617188 Z M 2.5 -22.082031 L 2.859375 -22.132812 L 2.652344 -21.777344 Z M 1.765625 -22.675781 L 2.171875 -22.492188 L 1.917969 -22.367188 Z M 2.613281 -23.535156 L 3.351562 -23.578125 L 3.777344 -22.710938 L 4.289062 -22.703125 L 4.308594 -22.144531 L 3.746094 -21.996094 L 3.46875 -22.304688 C 3.011719 -22.332031 2.652344 -22.03125 2.582031 -22.695312 C 2.558594 -23 2.613281 -23.277344 2.613281 -23.535156 Z M 1.082031 -23.035156 L 1.113281 -23.878906 L 1.421875 -24.15625 C 1.75 -23.871094 1.976562 -23.410156 2.226562 -23.027344 L 1.71875 -22.777344 Z M 0.558594 -24.492188 L 0.992188 -24.386719 L 0.734375 -24.136719 Z M 2.792969 -26.664062 L 3.125 -26.761719 L 3.378906 -26.632812 L 3.425781 -26.277344 L 3.171875 -26.023438 C 3.019531 -26.203125 2.894531 -26.460938 2.792969 -26.664062 Z M 0.472656 -29.332031 L 0.828125 -29.125 L 1.335938 -29.25 L 1.394531 -29.910156 L 1.75 -29.957031 C 1.398438 -30.417969 1.324219 -30.699219 0.738281 -30.859375 L 0.539062 -31.265625 L 0.691406 -31.214844 L 0.59375 -31.671875 L 1.105469 -32.050781 L 1.558594 -31.132812 L 1.964844 -30.949219 L 2.007812 -30.210938 C 1.648438 -29.652344 1.714844 -28.480469 1.175781 -28.15625 L 1.933594 -27.640625 C 1.683594 -27.769531 1.199219 -27.722656 0.917969 -27.648438 L 0.882812 -26.808594 L 1.996094 -25.703125 L 2.078125 -26.1875 L 1.292969 -27.007812 L 2.359375 -26.515625 C 2.480469 -25.75 2.914062 -25.644531 3.597656 -25.539062 L 3.46875 -25.285156 L 2.707031 -25.542969 L 2.527344 -25.265625 L 2.726562 -24.855469 L 3.210938 -24.902344 C 3.285156 -24.496094 3.054688 -24.191406 2.71875 -23.964844 L 2.390625 -23.992188 L 2.335938 -23.714844 L 2.003906 -23.488281 C 1.675781 -24.152344 1.609375 -24.941406 0.765625 -24.847656 L 0.667969 -25.308594 L -0.222656 -25.3125 L -0.550781 -25.722656 L 0.597656 -25.84375 L -0.0351562 -26.613281 L 0.273438 -26.890625 C 0.226562 -27.246094 -0.078125 -27.605469 -0.125 -27.960938 L 0.132812 -28.214844 L 0.433594 -27.855469 L 0.917969 -27.902344 C 0.996094 -28.128906 0.925781 -28.539062 0.800781 -28.792969 C 0.367188 -28.773438 -0.0664062 -28.625 -0.425781 -28.449219 L -0.632812 -28.09375 C -0.960938 -28.375 -1.238281 -28.8125 -1.3125 -29.21875 L -1.257812 -29.371094 L -0.648438 -29.035156 L -0.191406 -29.261719 C 0.0117188 -29.234375 0.269531 -29.230469 0.472656 -29.332031 Z M 1.761719 -24.890625 C 2.011719 -24.761719 2.214844 -24.351562 2.339844 -24.097656 L 2.75 -24.550781 C 2.648438 -24.753906 2.449219 -25.039062 2.21875 -25.117188 L 2.046875 -25.601562 C 1.839844 -25.5 1.660156 -25.09375 1.761719 -24.890625 Z M 1.839844 -28.351562 L 2.601562 -28.347656 L 2.296875 -28.195312 Z M -0.390625 -29.542969 L -0.1875 -29.769531 L -0.113281 -29.488281 Z M 0.472656 -29.332031 C 0.449219 -29.382812 0.371094 -29.410156 0.347656 -29.460938 C 0.269531 -29.613281 0.222656 -29.84375 0.273438 -29.996094 L 0.683594 -30.070312 L 1.011719 -29.914062 C 0.859375 -29.710938 0.652344 -29.484375 0.472656 -29.332031 Z M -0.660156 -31.125 L -0.328125 -31.222656 L -0.0507812 -30.535156 L -0.207031 -30.203125 L -0.738281 -30.769531 Z M 1.890625 -31.484375 L 2.730469 -31.324219 L 2.523438 -30.96875 Z M -0.234375 -33.363281 L 0.148438 -33.359375 L 0.753906 -32.765625 L -0.0117188 -32.390625 Z M 1.957031 -33.292969 L 2.238281 -33.492188 L 2.363281 -33.109375 L 2.105469 -32.859375 Z M 1.164062 -33.09375 L 0.890625 -33.53125 L 1.246094 -33.707031 L 1.476562 -33.628906 L 1.546875 -32.964844 Z M 0.160156 -34.632812 L 0.414062 -34.757812 L 0.464844 -34.398438 L 0.308594 -34.195312 Z M 1.734375 -34.132812 L 1.507812 -34.59375 L 1.640625 -34.976562 L 1.761719 -34.464844 L 2.191406 -34.105469 Z M -8.121094 -36.914062 L -7.941406 -37.195312 L -7.769531 -36.707031 Z M -6.511719 -37.640625 L -6.179688 -37.867188 L -5.976562 -37.585938 L -6.488281 -37.335938 Z M -6.988281 -38.613281 L -7.222656 -38.054688 L -6.84375 -37.667969 L -7.101562 -37.417969 L -7.476562 -38.183594 Z M -2.804688 -39.390625 L -2.605469 -39.109375 L -2.636719 -38.398438 C -2.941406 -38.503906 -3.140625 -38.785156 -3.5 -38.734375 C -3.316406 -39.015625 -3.113281 -39.242188 -2.804688 -39.390625 Z M -4.867188 -39.332031 L -4.839844 -39.792969 L -4.714844 -39.664062 L -4.433594 -39.355469 L -4.335938 -39.023438 C -4.335938 -38.894531 -4.414062 -38.667969 -4.417969 -38.539062 L -5.027344 -38.496094 L -5.199219 -39.234375 Z M -5.507812 -39.082031 C -5.609375 -39.035156 -5.6875 -38.933594 -5.789062 -38.882812 C -5.890625 -38.832031 -6.070312 -38.808594 -6.171875 -38.757812 C -6.09375 -38.988281 -6.167969 -39.269531 -5.859375 -39.417969 Z M -0.890625 -39.886719 L -0.6875 -39.730469 L -0.945312 -39.480469 L -1.171875 -39.8125 Z M -1.269531 -40.527344 L -1.171875 -40.066406 C -1.425781 -39.941406 -1.734375 -39.792969 -1.914062 -39.511719 L -2.523438 -39.464844 L -2.777344 -39.851562 L -2.46875 -40.253906 L -2.925781 -40.410156 L -2.71875 -40.765625 C -2.617188 -40.691406 -1.957031 -40.25 -1.855469 -40.300781 C -1.652344 -40.402344 -1.472656 -40.425781 -1.269531 -40.527344 Z M 0.109375 -40.945312 L 0.261719 -40.640625 L 0.0820312 -40.363281 L -0.199219 -40.542969 Z M -3.894531 -39.9375 L -4.324219 -40.296875 L -3.886719 -40.953125 C -3.554688 -40.925781 -3.203125 -40.59375 -2.925781 -40.410156 C -3.105469 -40.261719 -3.691406 -39.910156 -3.894531 -39.9375 Z M -1.898438 -41.421875 L -1.644531 -41.292969 L -2.054688 -40.835938 L -2.230469 -41.195312 Z M -0.167969 -41.253906 L -0.859375 -40.726562 L -1.1875 -40.882812 L -1.289062 -41.085938 L -0.90625 -41.210938 L -0.699219 -41.691406 Z M 0.347656 -42.015625 L 0.601562 -41.886719 L 0.398438 -41.65625 Z M -0.714844 -42.507812 L -0.460938 -42.761719 L -0.15625 -42.65625 L -0.386719 -42.351562 L -0.742188 -42.304688 Z M 2.464844 -42.226562 C 1.394531 -42.082031 2.03125 -42.203125 1.417969 -41.902344 L 1.09375 -42.695312 L 1.402344 -42.972656 C 1.402344 -42.972656 1.808594 -42.917969 1.832031 -42.867188 L 2.414062 -42.328125 C 2.414062 -42.328125 2.464844 -42.226562 2.464844 -42.226562 Z M 3.898438 -43.183594 L 3.941406 -42.441406 L 3.738281 -42.214844 C 3.6875 -42.316406 3.664062 -42.496094 3.613281 -42.597656 C 3.535156 -42.625 3.285156 -42.882812 3.257812 -42.933594 C 3.488281 -42.980469 3.695312 -43.082031 3.898438 -43.183594 Z M 2.042969 -43.730469 L 2.175781 -44.113281 L 2.347656 -43.628906 Z M 2.042969 -43.730469 "/></g></g></g></svg>